<svg width="212" height="128" viewBox="0 0 212 128" fill="none" xmlns="http://www.w3.org/2000/svg">
<path d="M205.724 35.1851C205.448 34.4308 205.194 33.6416 204.963 32.8237C204.75 32.0612 204.552 31.2741 204.38 30.4622C204.217 29.6957 204.076 28.9065 203.954 28.1008C203.837 27.3301 203.741 26.5409 203.664 25.7394C203.59 24.9646 203.535 24.1774 203.5 23.378C203.469 22.6792 203.451 21.9742 203.451 21.2611C203.451 21.1789 203.453 21.0987 203.455 21.0165C203.459 20.2191 203.482 19.432 203.525 18.6551C203.568 17.8556 203.634 17.0664 203.716 16.2937C203.802 15.4901 203.909 14.7029 204.034 13.9322C204.166 13.1245 204.32 12.3374 204.493 11.5708C204.676 10.759 204.879 9.96977 205.105 9.20934C205.35 8.38726 205.619 7.60011 205.909 6.84791C206.229 6.01555 206.577 5.2243 206.951 4.48648C207.335 3.72605 207.744 3.01907 208.176 2.36963H119.165C118.813 3.03346 118.48 3.74249 118.166 4.48648C117.851 5.23663 117.555 6.02377 117.284 6.84791C117.033 7.60628 116.801 8.39342 116.592 9.20934C116.394 9.97388 116.217 10.7631 116.057 11.5708C115.905 12.3394 115.771 13.1286 115.656 13.9322C115.545 14.705 115.451 15.4921 115.375 16.2937C115.301 17.0685 115.243 17.8556 115.204 18.6551C115.167 19.432 115.147 20.2212 115.145 21.0165C115.145 21.0987 115.143 21.1789 115.143 21.2611C115.143 21.9742 115.161 22.6792 115.188 23.378C115.219 24.1774 115.268 24.9646 115.334 25.7394C115.402 26.5409 115.488 27.3281 115.591 28.1008C115.697 28.9044 115.823 29.6936 115.967 30.4622C116.117 31.2699 116.285 32.0591 116.472 32.8237C116.672 33.6375 116.89 34.4267 117.128 35.1851C117.385 36.0072 117.664 36.7964 117.964 37.5465C118.334 38.4734 118.735 39.3449 119.165 40.1526H208.174C207.65 39.3675 207.162 38.4919 206.712 37.5465C206.359 36.8046 206.028 36.0154 205.724 35.1851Z" fill="white"/>
<path d="M195.476 14.3052H114.881V16.0007H195.476V14.3052Z" fill="#243F80"/>
<path d="M195.477 26.5171H51.3926V28.2126H195.477V26.5171Z" fill="#243F80"/>
<path d="M17.7279 42.5174H209.031C210.336 42.5174 211.392 41.459 211.392 40.156C211.392 38.8509 210.334 37.7946 209.031 37.7946H129.005C124.126 37.7946 120.725 29.0805 120.725 21.2604C120.725 13.4404 124.126 4.72628 129.005 4.72628H209.031C210.336 4.72628 211.392 3.66785 211.392 2.36485C211.392 1.06185 210.334 0.00341797 209.031 0.00341797H17.7279C10.436 0.00341797 4.72461 9.34021 4.72461 21.2604C4.72461 33.1806 10.436 42.5174 17.7279 42.5174Z" fill="#EF9449"/>
<path d="M115.736 21.257C115.736 9.33679 121.447 0 128.739 0H103.939C96.647 0 90.9355 9.33679 90.9355 21.257C90.9355 33.1772 96.647 42.514 103.939 42.514H128.739C121.447 42.5161 115.736 33.1772 115.736 21.257Z" fill="#FFC718"/>
<path d="M84.0112 21.257C84.0112 9.33679 89.7226 0 97.0145 0H92.306C85.0142 0 79.3027 9.33679 79.3027 21.257C79.3027 33.1772 85.0142 42.514 92.306 42.514H97.0166C89.7247 42.5161 84.0112 33.1772 84.0112 21.257Z" fill="#FFC718"/>
<path d="M185.367 108.893C185.336 108.094 185.287 107.306 185.221 106.532C185.153 105.73 185.067 104.943 184.964 104.17C184.857 103.367 184.732 102.577 184.588 101.809C184.438 101.001 184.27 100.212 184.082 99.4473H10.7689C10.9847 100.21 11.1799 100.997 11.3525 101.809C11.5149 102.575 11.6567 103.364 11.778 104.17C11.8951 104.941 11.9917 105.73 12.0677 106.532C12.1417 107.306 12.1972 108.094 12.2322 108.893C12.263 109.592 12.2815 110.297 12.2815 111.01C12.2815 111.092 12.2794 111.172 12.2774 111.254C12.2733 112.052 12.2507 112.839 12.2075 113.616C12.1643 114.415 12.0986 115.205 12.0164 115.977C11.93 116.781 11.8232 117.568 11.6978 118.339C11.5663 119.146 11.4121 119.934 11.2395 120.7C11.0566 121.512 10.8531 122.301 10.625 123.062H183.959C184.156 122.297 184.333 121.508 184.494 120.7C184.646 119.932 184.779 119.142 184.894 118.339C185.005 117.566 185.1 116.779 185.176 115.977C185.25 115.203 185.307 114.415 185.346 113.616C185.383 112.839 185.404 112.05 185.406 111.254C185.406 111.172 185.408 111.092 185.408 111.01C185.412 110.297 185.394 109.592 185.367 108.893Z" fill="#FFEFC8"/>
<path d="M187.183 104.302H106.588V105.998H187.183V104.302Z" fill="#243F80"/>
<path d="M187.182 116.514H43.0977V118.21H187.182V116.514Z" fill="#243F80"/>
<path d="M179.492 127.545H5.90049C4.59544 127.545 3.53906 126.486 3.53906 125.183C3.53906 123.878 4.59749 122.822 5.90049 122.822H179.492C181.117 122.822 184.227 118.222 184.227 111.013C184.227 103.803 181.117 99.2033 179.492 99.2033H5.90049C4.59544 99.2033 3.53906 98.1449 3.53906 96.8419C3.53906 95.5389 4.59749 94.4805 5.90049 94.4805H179.492C185.335 94.4805 188.95 103.063 188.95 111.015C188.95 118.966 185.335 127.545 179.492 127.545Z" fill="#00B0B2"/>
<path d="M177.145 70.8613H0V94.4798H177.145V70.8613Z" fill="url(#paint0_linear_1490_9509)"/>
<path d="M153.522 70.8604H148.799V94.4788H153.522V70.8604Z" fill="#FFC718"/>
<path d="M162.971 70.8589H158.248V94.4773H162.971V70.8589Z" fill="#FFC718"/>
<path d="M172.414 70.8589H167.691V94.4773H172.414V70.8589Z" fill="#FFC718"/>
<path d="M128.184 54.3267C128.153 53.5272 128.104 52.7401 128.038 51.9653C127.97 51.1637 127.884 50.3766 127.781 49.6038C127.674 48.8002 127.549 48.011 127.405 47.2424C127.255 46.4347 127.087 45.6455 126.9 44.881C126.7 44.0671 126.482 43.2779 126.244 42.5195H22.6204C22.8958 43.2738 23.1506 44.063 23.3808 44.881C23.5946 45.6434 23.7919 46.4306 23.9645 47.2424C24.1269 48.009 24.2687 48.7982 24.3899 49.6038C24.5071 50.3745 24.6037 51.1637 24.6797 51.9653C24.7537 52.7401 24.8092 53.5272 24.8441 54.3267C24.875 55.0255 24.8935 55.7304 24.8935 56.4436C24.8935 56.5258 24.8914 56.6059 24.8914 56.6881C24.8873 57.4855 24.8647 58.2727 24.8215 59.0496C24.7784 59.849 24.7126 60.6382 24.6304 61.411C24.5441 62.2146 24.4372 63.0017 24.3118 63.7724C24.1803 64.5801 24.0262 65.3673 23.8535 66.1339C23.6706 66.9457 23.4672 67.7349 23.2411 68.4953C22.9965 69.3174 22.7273 70.1045 22.4375 70.8567H126.088C126.339 70.0984 126.571 69.3112 126.78 68.4953C126.978 67.7308 127.154 66.9416 127.315 66.1339C127.467 65.3652 127.6 64.576 127.716 63.7724C127.826 62.9997 127.921 62.2125 127.997 61.411C128.071 60.6362 128.129 59.849 128.168 59.0496C128.205 58.2727 128.225 57.4835 128.227 56.6881C128.227 56.6059 128.229 56.5258 128.229 56.4436C128.229 55.7304 128.213 55.0255 128.184 54.3267Z" fill="#FFEFC8"/>
<path d="M174.48 49.7334H93.8848V51.4289H174.48V49.7334Z" fill="#243F80"/>
<path d="M174.481 61.9453H30.3965V63.6409H174.481V61.9453Z" fill="#243F80"/>
<path d="M111.112 56.6868C111.112 64.6343 107.304 70.8574 102.443 70.8574H195.633C200.493 70.8574 204.302 64.6322 204.302 56.6868C204.302 48.7413 200.493 42.5161 195.633 42.5161H102.441C107.304 42.5161 111.112 48.7413 111.112 56.6868Z" fill="#39C6B5"/>
<path d="M152.593 56.6868C152.593 64.6343 148.784 70.8574 143.924 70.8574H147.064C151.925 70.8574 155.733 64.6322 155.733 56.6868C155.733 48.7413 151.925 42.5161 147.064 42.5161H143.924C148.784 42.5161 152.593 48.7413 152.593 56.6868Z" fill="#067BC2"/>
<path d="M137.319 56.6868C137.319 64.6343 133.511 70.8574 128.65 70.8574H131.791C136.651 70.8574 140.46 64.6322 140.46 56.6868C140.46 48.7413 136.651 42.5161 131.791 42.5161H128.65C133.511 42.5161 137.319 48.7413 137.319 56.6868Z" fill="#067BC2"/>
<path d="M122.04 56.6868C122.04 64.6343 118.232 70.8574 113.371 70.8574H116.511C121.372 70.8574 125.18 64.6322 125.18 56.6868C125.18 48.7413 121.372 42.5161 116.511 42.5161H113.371C118.232 42.5161 122.04 48.7413 122.04 56.6868Z" fill="#067BC2"/>
<defs>
<linearGradient id="paint0_linear_1490_9509" x1="69.8988" y1="62.9662" x2="69.6166" y2="105.758" gradientUnits="userSpaceOnUse">
<stop stop-color="#EEAF48"/>
<stop offset="1" stop-color="#EE7D48"/>
</linearGradient>
</defs>
</svg>
