<svg width="101" height="195" viewBox="0 0 101 195" fill="none" xmlns="http://www.w3.org/2000/svg">
<path fill-rule="evenodd" clip-rule="evenodd" d="M63.7228 36.7617L55.4456 36.2188L46.6543 165.104L54.9383 165.645L63.7228 36.7617Z" fill="#244082"/>
<path fill-rule="evenodd" clip-rule="evenodd" d="M59.5808 36.4902L55.4456 36.2188L46.6543 165.104L50.7946 165.375L59.5808 36.4902Z" fill="#223164"/>
<path fill-rule="evenodd" clip-rule="evenodd" d="M54.2559 43.4204L53.4262 43.3662L53.2734 45.6823L53.9573 45.7264V45.7281L57.037 45.9301L63.071 46.3237L61.1468 74.549L61.8917 74.5999C62.2141 74.3572 62.2039 74.5117 62.9437 69.0054C63.6937 63.4907 66.0014 45.9963 65.9454 43.5935C65.618 30.2224 64.4268 19.8598 64.269 4.65615C64.2876 3.64653 59.4533 3.18669 59.2921 4.31848L54.2559 43.4204Z" fill="#244082"/>
<path d="M26.3706 127.437L25.4271 137.71C25.086 141.434 27.8281 144.728 31.5527 145.071L38.4537 145.703C42.1783 146.045 45.4719 143.304 45.8146 139.58L46.7581 129.307L26.3706 127.437Z" fill="#D63332"/>
<path d="M47.8195 123.119L26.4512 121.159L32.1729 58.7608L45.0146 36.2183L53.5412 60.7206L47.8195 123.119Z" fill="#FBC7AF"/>
<path d="M49.8438 61.8759C47.173 61.6316 46.4111 60.1401 46.4111 60.1401C46.4111 60.1401 45.2267 61.2277 42.7408 61.0004C40.255 60.773 39.2895 59.4868 39.2895 59.4868C39.2895 59.4868 38.4852 60.9087 35.592 60.644C32.6972 60.3776 32.1661 58.8335 32.1661 58.8335L26.4512 121.16L33.5745 121.813L40.6978 122.467L47.8212 123.12L53.5361 60.7934C53.5344 60.7934 52.5146 62.1203 49.8438 61.8759Z" fill="#067BC2"/>
<path d="M45.0162 36.2183L41.8262 41.8178C42.8137 42.2573 43.8997 42.5441 44.8347 42.5407C45.5524 42.539 46.3143 42.3676 47.0507 42.0656L45.0162 36.2183Z" fill="#28364C"/>
<path d="M26.4353 121.156L25.5918 130.357L46.9599 132.316L47.8034 123.116L26.4353 121.156Z" fill="white"/>
<path d="M26.1763 124.14L25.877 127.405L47.2451 129.364L47.5444 126.099L26.1763 124.14Z" fill="#243F80"/>
<path d="M81.39 65.7056L82.2028 55.421C82.4964 51.6931 79.7119 48.4335 75.9856 48.1382L69.0761 47.5935C65.3481 47.3 62.0885 50.0828 61.7932 53.8107L60.9805 64.0953L81.39 65.7056Z" fill="#D63332"/>
<path d="M59.9996 70.2959L81.3917 71.9842L76.4607 134.45L63.9058 157.154L55.0703 132.762L59.9996 70.2959Z" fill="#FBC7AF"/>
<path d="M58.753 131.559C61.4255 131.769 62.206 133.252 62.206 133.252C62.206 133.252 63.3769 132.149 65.8661 132.344C68.3537 132.541 69.3379 133.814 69.3379 133.814C69.3379 133.814 70.1235 132.382 73.02 132.611C75.9182 132.84 76.468 134.379 76.468 134.379L81.3922 71.9859L74.2604 71.4226L67.1303 70.8593L59.9985 70.2959L55.0742 132.689C55.0759 132.689 56.0788 131.348 58.753 131.559Z" fill="#D63332"/>
<path d="M63.9058 157.153L67.0246 151.513C66.0302 151.086 64.9426 150.814 64.0059 150.828C63.2881 150.84 62.528 151.019 61.7949 151.33L63.9058 157.153Z" fill="#28364C"/>
<path d="M60.7291 61.0877L60.002 70.2983L81.3937 71.9871L82.1208 62.7764L60.7291 61.0877Z" fill="white"/>
<path fill-rule="evenodd" clip-rule="evenodd" d="M24.5007 32.0137L16.2422 32.7654L27.7688 159.927L36.0358 159.171L24.5007 32.0137Z" fill="#244082"/>
<path fill-rule="evenodd" clip-rule="evenodd" d="M20.3689 32.3901L16.2422 32.7652L27.7688 159.926L31.9006 159.55L20.3689 32.3901Z" fill="#223164"/>
<path fill-rule="evenodd" clip-rule="evenodd" d="M16.1941 39.9805L15.3661 40.0552L15.5782 42.3408L16.2603 42.278V42.2797L19.3333 41.9997L25.3537 41.45L27.8786 69.2985L28.6218 69.234C28.9018 68.9473 28.9171 69.1 28.7847 63.6107C28.6591 58.1129 28.1976 40.6796 27.7649 38.3414C25.3452 25.3419 22.5437 15.4119 20.0036 0.596837C19.8644 -0.390724 15.0182 -0.0903854 15.0352 1.03971L16.1941 39.9805Z" fill="#244082"/>
<path fill-rule="evenodd" clip-rule="evenodd" d="M50.1551 194.571H77.5675C84.6671 194.571 90.4754 188.763 90.4754 181.665L96.4737 84.6553H50.1568H3.83984L9.83817 181.665C9.83817 188.763 15.6465 194.571 22.746 194.571H50.1551Z" fill="url(#paint0_linear_1490_9507)"/>
<path fill-rule="evenodd" clip-rule="evenodd" d="M50.1548 194.571H61.712C68.8116 194.571 74.6199 188.763 74.6199 181.665L80.6182 84.6553H50.1548H3.83789L9.83622 181.665C9.83622 188.763 15.6445 194.571 22.7441 194.571H50.1548Z" fill="url(#paint1_linear_1490_9507)"/>
<path fill-rule="evenodd" clip-rule="evenodd" d="M97.9654 79.9614H2.34502C1.05543 79.9614 0 81.0169 0 82.3065C0 83.5961 1.05543 84.6515 2.34502 84.6515H97.9654C99.255 84.6515 100.31 83.5961 100.31 82.3065C100.31 81.0169 99.255 79.9614 97.9654 79.9614Z" fill="#FFEDE1"/>
<defs>
<linearGradient id="paint0_linear_1490_9507" x1="40.3919" y1="47.9125" x2="28.7468" y2="246.385" gradientUnits="userSpaceOnUse">
<stop stop-color="#EEAF48"/>
<stop offset="1" stop-color="#EE7D48"/>
</linearGradient>
<linearGradient id="paint1_linear_1490_9507" x1="34.1343" y1="47.9125" x2="20.1067" y2="246.075" gradientUnits="userSpaceOnUse">
<stop stop-color="#EEAF48"/>
<stop offset="1" stop-color="#EE7D48"/>
</linearGradient>
</defs>
</svg>
