<svg width="14" height="14" viewBox="0 0 14 14" fill="none" xmlns="http://www.w3.org/2000/svg">
<path fill-rule="evenodd" clip-rule="evenodd" d="M4.10982 1.33342C2.42315 1.33342 1.33315 2.48876 1.33315 4.27742V9.72276C1.33315 11.5114 2.42315 12.6668 4.10982 12.6668H9.88848C11.5758 12.6668 12.6665 11.5114 12.6665 9.72276V4.27742C12.6665 2.48876 11.5758 1.33342 9.88915 1.33342H4.10982ZM9.88865 13.6667H4.10998C1.85065 13.6667 0.333313 12.0813 0.333313 9.72268V4.27734C0.333313 1.91868 1.85065 0.333344 4.10998 0.333344H9.88931C12.1486 0.333344 13.6666 1.91868 13.6666 4.27734V9.72268C13.6666 12.0813 12.1486 13.6667 9.88865 13.6667Z" fill="white"/>
<path fill-rule="evenodd" clip-rule="evenodd" d="M6.20896 9.08205C6.08163 9.08205 5.95296 9.03338 5.85563 8.93538L4.27296 7.35338C4.07763 7.15805 4.07763 6.84205 4.27296 6.64671C4.4683 6.45138 4.7843 6.45138 4.97963 6.64671L6.20896 7.87471L9.01963 5.06471C9.21496 4.86938 9.53096 4.86938 9.7263 5.06471C9.92163 5.26005 9.92163 5.57605 9.7263 5.77138L6.5623 8.93538C6.46496 9.03338 6.33696 9.08205 6.20896 9.08205Z" fill="white"/>
</svg>
