<svg width="22" height="22" viewBox="0 0 22 22" fill="none" xmlns="http://www.w3.org/2000/svg">
<g id="Iconly/Light-Outline/Upload">
<g id="Upload">
<g id="Group 3">
<mask id="mask0_479_1249" style="mask-type:luminance" maskUnits="userSpaceOnUse" x="1" y="8" width="20" height="13">
<path id="Clip 2" fill-rule="evenodd" clip-rule="evenodd" d="M1.83371 8.06099H20.1667V20.6597H1.83371V8.06099Z" fill="white"/>
</mask>
<g mask="url(#mask0_479_1249)">
<path id="Fill 1" fill-rule="evenodd" clip-rule="evenodd" d="M16.1016 20.6597H5.89913C3.65788 20.6597 1.83371 18.8364 1.83371 16.5942V12.1255C1.83371 9.88424 3.65788 8.06099 5.89913 8.06099H6.75438C7.13388 8.06099 7.44188 8.36899 7.44188 8.74849C7.44188 9.12799 7.13388 9.43599 6.75438 9.43599H5.89913C4.41504 9.43599 3.20871 10.6423 3.20871 12.1255V16.5942C3.20871 18.0783 4.41504 19.2847 5.89913 19.2847H16.1016C17.5848 19.2847 18.792 18.0783 18.792 16.5942V12.1172C18.792 10.6387 17.5894 9.43599 16.1117 9.43599H15.2473C14.8678 9.43599 14.5598 9.12799 14.5598 8.74849C14.5598 8.36899 14.8678 8.06099 15.2473 8.06099H16.1117C18.3475 8.06099 20.167 9.88057 20.167 12.1172V16.5942C20.167 18.8364 18.3429 20.6597 16.1016 20.6597Z" fill="white"/>
</g>
</g>
<g id="Group 6">
<mask id="mask1_479_1249" style="mask-type:luminance" maskUnits="userSpaceOnUse" x="10" y="1" width="2" height="14">
<path id="Clip 5" fill-rule="evenodd" clip-rule="evenodd" d="M10.3125 1.83331H11.6875V14.2458H10.3125V1.83331Z" fill="white"/>
</mask>
<g mask="url(#mask1_479_1249)">
<path id="Fill 4" fill-rule="evenodd" clip-rule="evenodd" d="M11 14.2458C10.6205 14.2458 10.3125 13.9378 10.3125 13.5583V2.52071C10.3125 2.14121 10.6205 1.83321 11 1.83321C11.3795 1.83321 11.6875 2.14121 11.6875 2.52071V13.5583C11.6875 13.9378 11.3795 14.2458 11 14.2458Z" fill="white"/>
</g>
</g>
<path id="Fill 7" fill-rule="evenodd" clip-rule="evenodd" d="M8.32793 5.8927C8.15285 5.8927 7.97685 5.82578 7.84301 5.69195C7.57443 5.42428 7.5726 4.98978 7.84118 4.72028L10.5133 2.03628C10.7708 1.77687 11.2292 1.77687 11.4868 2.03628L14.1598 4.72028C14.4274 4.98978 14.4265 5.42428 14.1579 5.69195C13.8884 5.95962 13.4539 5.95962 13.1863 5.69012L11 3.49562L8.81468 5.69012C8.68085 5.82578 8.50393 5.8927 8.32793 5.8927Z" fill="white"/>
</g>
</g>
</svg>
