<svg width="38" height="39" viewBox="0 0 38 39" fill="none" xmlns="http://www.w3.org/2000/svg">
<circle cx="19.168" cy="19.6373" r="18.8319" fill="#067BC2"/>
<path fill-rule="evenodd" clip-rule="evenodd" d="M13.5115 11.1999C13.9846 10.3401 14.4993 9.76534 15.263 9.46137C16.6624 8.90492 21.6745 8.90492 23.0729 9.46149C23.8362 9.76529 24.351 10.34 24.8245 11.1996L25.3567 12.2202C25.3689 12.2405 25.3801 12.2582 25.3901 12.2736L25.4353 12.3354C25.6779 12.5996 26.0837 12.7592 26.3516 12.7592C28.8845 12.7592 30.9383 14.8126 30.9383 17.3448V24.1654C30.9383 27.3954 28.3186 30.0151 25.0886 30.0151H13.2481C10.0174 30.0151 7.39847 27.3957 7.39847 24.1654V17.3448C7.39847 14.8126 9.45229 12.7592 11.9852 12.7592C12.2521 12.7592 12.6585 12.5994 12.9014 12.3354C12.9063 12.3301 12.9126 12.3222 12.9203 12.3118L12.9808 12.2189L13.5115 11.1999ZM23.2781 12.051C22.9839 11.5169 22.7181 11.2201 22.4201 11.1015L22.2797 11.0548C21.0684 10.7124 16.855 10.728 15.9157 11.1015C15.6179 11.22 15.3523 11.5166 15.0585 12.0507L14.6055 12.9265L14.494 13.1283C14.4009 13.2831 14.3078 13.4138 14.2015 13.5296C13.6054 14.1775 12.7236 14.5244 11.9853 14.5244L11.7922 14.5309C10.3243 14.6301 9.16407 15.8523 9.16407 17.3445V24.1651C9.16407 26.4204 10.9926 28.2493 13.2482 28.2493H25.0888C27.3436 28.2493 29.1729 26.42 29.1729 24.1651V17.3445C29.1729 15.7874 27.9096 14.5244 26.3517 14.5244L26.1467 14.5158C25.454 14.4588 24.676 14.1185 24.1347 13.5288C24.0299 13.4145 23.9373 13.2848 23.8447 13.1313C23.8315 13.1092 23.815 13.0802 23.796 13.0459L23.6594 12.7897L23.2781 12.051Z" fill="white"/>
<path d="M25.647 15.5174C26.297 15.5174 26.824 16.0444 26.824 16.6944C26.824 17.298 26.3696 17.7955 25.7842 17.8635L25.647 17.8714C24.9864 17.8714 24.4594 17.3445 24.4594 16.6944C24.4594 16.0908 24.9138 15.5934 25.4991 15.5254L25.647 15.5174Z" fill="white"/>
<path fill-rule="evenodd" clip-rule="evenodd" d="M14.5437 20.9647C14.5437 18.4104 16.6137 16.3403 19.1681 16.3403C21.7224 16.3403 23.7925 18.4104 23.7925 20.9647C23.7925 23.5191 21.7224 25.5891 19.1681 25.5891C16.6137 25.5891 14.5437 23.5191 14.5437 20.9647ZM22.0271 20.9644C22.0271 19.3851 20.7475 18.1055 19.1682 18.1055C17.5889 18.1055 16.3093 19.3851 16.3093 20.9644C16.3093 22.5437 17.5889 23.8233 19.1682 23.8233C20.7475 23.8233 22.0271 22.5437 22.0271 20.9644Z" fill="white"/>
</svg>
