<svg width="51" height="51" viewBox="0 0 51 51" fill="none" xmlns="http://www.w3.org/2000/svg">
<g opacity="0.3">
<mask id="mask0_479_1124" style="mask-type:luminance" maskUnits="userSpaceOnUse" x="8" y="30" width="34" height="17">
<path fill-rule="evenodd" clip-rule="evenodd" d="M8.68411 30.7466H41.9798V46.2469H8.68411V30.7466Z" fill="white"/>
</mask>
<g mask="url(#mask0_479_1124)">
<path fill-rule="evenodd" clip-rule="evenodd" d="M25.3342 33.8998C16.3775 33.8998 11.8372 35.4384 11.8372 38.4758C11.8372 41.5406 16.3775 43.094 25.3342 43.094C34.2888 43.094 38.827 41.5553 38.827 38.5179C38.827 35.4532 34.2888 33.8998 25.3342 33.8998ZM25.3341 46.2469C21.2162 46.2469 8.68402 46.2469 8.68402 38.4757C8.68402 31.5475 18.1872 30.7466 25.3341 30.7466C29.4519 30.7466 41.9799 30.7466 41.9799 38.5178C41.9799 45.446 32.4788 46.2469 25.3341 46.2469Z" fill="#5D626E"/>
</g>
<mask id="mask1_479_1124" style="mask-type:luminance" maskUnits="userSpaceOnUse" x="14" y="4" width="23" height="23">
<path fill-rule="evenodd" clip-rule="evenodd" d="M14.1707 4.48016H36.4942V26.8006H14.1707V4.48016Z" fill="white"/>
</mask>
<g mask="url(#mask1_479_1124)">
<path fill-rule="evenodd" clip-rule="evenodd" d="M25.3345 7.48149C20.8341 7.48149 17.1724 11.1411 17.1724 15.6415C17.1577 20.1272 20.7921 23.7847 25.2736 23.8015L25.3345 25.3024V23.8015C29.8329 23.8015 33.4925 20.1398 33.4925 15.6415C33.4925 11.1411 29.8329 7.48149 25.3345 7.48149ZM25.3346 26.8009H25.2673C19.1253 26.782 14.1498 21.7729 14.1708 15.6351C14.1708 9.48667 19.1778 4.47968 25.3346 4.47968C31.4893 4.47968 36.4942 9.48667 36.4942 15.6414C36.4942 21.796 31.4893 26.8009 25.3346 26.8009Z" fill="#5D626E"/>
</g>
</g>
</svg>
