<svg width="22" height="22" viewBox="0 0 22 22" fill="none" xmlns="http://www.w3.org/2000/svg">
<g id="Iconly/Light-Outline/Upload">
<g id="Upload">
<g id="Group 3">
<mask id="mask0_479_1235" style="mask-type:luminance" maskUnits="userSpaceOnUse" x="1" y="8" width="20" height="13">
<path id="Clip 2" fill-rule="evenodd" clip-rule="evenodd" d="M1.83371 8.061H20.1667V20.6597H1.83371V8.061Z" fill="white"/>
</mask>
<g mask="url(#mask0_479_1235)">
<path id="Fill 1" fill-rule="evenodd" clip-rule="evenodd" d="M16.1016 20.6597H5.89913C3.65788 20.6597 1.83371 18.8364 1.83371 16.5942V12.1255C1.83371 9.88425 3.65788 8.061 5.89913 8.061H6.75438C7.13388 8.061 7.44188 8.369 7.44188 8.7485C7.44188 9.128 7.13388 9.436 6.75438 9.436H5.89913C4.41504 9.436 3.20871 10.6423 3.20871 12.1255V16.5942C3.20871 18.0783 4.41504 19.2847 5.89913 19.2847H16.1016C17.5848 19.2847 18.792 18.0783 18.792 16.5942V12.1172C18.792 10.6387 17.5894 9.436 16.1117 9.436H15.2473C14.8678 9.436 14.5598 9.128 14.5598 8.7485C14.5598 8.369 14.8678 8.061 15.2473 8.061H16.1117C18.3475 8.061 20.167 9.88058 20.167 12.1172V16.5942C20.167 18.8364 18.3429 20.6597 16.1016 20.6597Z" fill="white"/>
</g>
</g>
<g id="Group 6">
<mask id="mask1_479_1235" style="mask-type:luminance" maskUnits="userSpaceOnUse" x="10" y="1" width="2" height="14">
<path id="Clip 5" fill-rule="evenodd" clip-rule="evenodd" d="M10.3125 1.83333H11.6875V14.2458H10.3125V1.83333Z" fill="white"/>
</mask>
<g mask="url(#mask1_479_1235)">
<path id="Fill 4" fill-rule="evenodd" clip-rule="evenodd" d="M11 14.2458C10.6205 14.2458 10.3125 13.9378 10.3125 13.5583V2.52073C10.3125 2.14123 10.6205 1.83323 11 1.83323C11.3795 1.83323 11.6875 2.14123 11.6875 2.52073V13.5583C11.6875 13.9378 11.3795 14.2458 11 14.2458Z" fill="white"/>
</g>
</g>
<path id="Fill 7" fill-rule="evenodd" clip-rule="evenodd" d="M8.32793 5.89271C8.15285 5.89271 7.97685 5.8258 7.84301 5.69197C7.57443 5.4243 7.5726 4.9898 7.84118 4.7203L10.5133 2.0363C10.7708 1.77688 11.2292 1.77688 11.4868 2.0363L14.1598 4.7203C14.4274 4.9898 14.4265 5.4243 14.1579 5.69197C13.8884 5.95963 13.4539 5.95963 13.1863 5.69013L11 3.49563L8.81468 5.69013C8.68085 5.8258 8.50393 5.89271 8.32793 5.89271Z" fill="white"/>
</g>
</g>
</svg>
